<?xml version="1.0" encoding="UTF-8"?>
<svg version="1.1" xmlns="http://www.w3.org/2000/svg" width="373" height="373">
<path d="M0 0 C0.78956589 -0.00979385 1.57913177 -0.01958771 2.3926239 -0.02967834 C56.60510557 -0.5633514 104.37905341 16.02598462 143.62597656 54.04931641 C175.37688773 85.3631525 197.30510023 130.62451109 197.76953125 175.70703125 C197.7793251 176.49659714 197.78911896 177.28616302 197.79920959 178.09965515 C198.33288265 232.31213682 181.74354663 280.08608466 143.72021484 319.33300781 C112.40637875 351.08391898 67.14502016 373.01213148 22.0625 373.4765625 C21.27293411 373.48635635 20.48336823 373.49615021 19.6698761 373.50624084 C-34.54260557 374.0399139 -82.31655341 357.45057788 -121.56347656 319.42724609 C-153.31438773 288.11341 -175.24260023 242.85205141 -175.70703125 197.76953125 C-175.7168251 196.97996536 -175.72661896 196.19039948 -175.73670959 195.37690735 C-176.27038265 141.16442568 -159.68104663 93.39047784 -121.65771484 54.14355469 C-90.34387875 22.39264352 -45.08252016 0.46443102 0 0 Z " fill="#0A573A" transform="translate(175.46875,-0.23828125)"/>
<path d="M0 0 C0.99354492 -0.01853027 1.98708984 -0.03706055 3.01074219 -0.05615234 C13.74497365 0.03469495 23.50083106 3.54546925 31.75 10.5 C38.10777386 17.38629296 39.21710215 24.72469146 39.0625 33.89453125 C38.31653342 42.50112067 34.87925221 50.35733586 28.75 56.5 C20.47576136 62.89055868 14.33209461 64.72418002 3.75 63.5 C0.5518147 62.08977656 -1.46279647 60.51795175 -3.25 57.5 C-3.6875 53.625 -3.6875 53.625 -3.25 50.5 C-2.65832031 50.24605469 -2.06664062 49.99210937 -1.45703125 49.73046875 C7.39551449 45.87462909 12.26671207 42.6372216 17.0625 34.1875 C18.46710596 28.69676762 18.38585636 23.44289445 16.625 18.0625 C13.59204842 13.91746618 9.63126417 12.54072236 4.75 11.5 C-7.63690014 10.26841528 -17.86330744 16.00689563 -27.3125 23.5625 C-37.66192766 33.0320168 -46.35224177 47.51972621 -47.50390625 61.60546875 C-47.74101127 68.25205774 -47.79838221 74.28419214 -43.25 79.5 C-37.62782437 84.22553555 -31.41237238 85.22129355 -24.29296875 86.09765625 C-20.77510818 86.56279057 -17.6157091 87.40418773 -14.25 88.5 C-13.5 90.1875 -13.5 90.1875 -13.25 92.5 C-14.703125 95.078125 -14.703125 95.078125 -17.25 97.5 C-20.2170708 98.09638123 -22.76352343 98.41498531 -25.75 98.5625 C-38.35794338 99.59916715 -47.91505852 103.06868494 -58.25 110.5 C-58.89710937 110.94988281 -59.54421875 111.39976562 -60.2109375 111.86328125 C-69.06099799 118.65099733 -75.17873567 129.65175305 -77.25 140.5 C-78.13282693 149.8248594 -77.87437691 158.1052252 -73.25 166.5 C-72.4146875 168.0778125 -72.4146875 168.0778125 -71.5625 169.6875 C-64.81636918 177.8922537 -56.76463446 182.00910072 -46.25 183.5 C-22.15635635 185.84122797 0.17785702 178.99895687 19.0625 163.75 C20.63695284 162.34662944 22.20084858 160.9312514 23.75 159.5 C24.44738281 158.93023437 25.14476562 158.36046875 25.86328125 157.7734375 C35.37755172 149.97727801 42.17330075 139.7682525 48.75 129.5 C50.6875 129.875 50.6875 129.875 52.75 130.5 C54.29082891 133.58165782 53.99116071 136.09183171 53.75 139.5 C42.53609131 165.12707957 16.79094238 183.23070892 -8.25 193.5 C-30.8170838 201.95951862 -58.24519671 203.01409196 -80.47265625 192.9296875 C-91.69725207 187.15162552 -99.43577367 179.44276597 -103.75 167.375 C-107.37917282 153.71699695 -106.20476167 139.12101823 -99.70703125 126.50390625 C-89.78606542 110.13544776 -76.11091792 101.50752623 -59.25 93.5 C-57.91456365 92.83755606 -56.57991466 92.17346062 -55.25 91.5 C-55.85328125 91.05269531 -56.4565625 90.60539062 -57.078125 90.14453125 C-64.37851109 84.62214242 -70.77046348 78.92713535 -72.25 69.5 C-73.64188563 51.52479123 -67.7215008 38.05798648 -56.0625 24.375 C-40.87832287 8.16138713 -21.96146877 0.25332362 0 0 Z " fill="#F7FBFA" transform="translate(156.25,68.5)"/>
<path d="M0 0 C0.54943348 6.5932018 -0.07407026 11.54731981 -4 17 C-8.41388359 21.71720735 -12.74079416 24.74675574 -19.33056641 25.25878906 C-20.57499512 25.26104492 -21.81942383 25.26330078 -23.1015625 25.265625 C-23.77867279 25.26753845 -24.45578308 25.2694519 -25.15341187 25.27142334 C-26.58388644 25.27277988 -28.01437354 25.26912059 -29.44482422 25.26074219 C-31.59762444 25.25013489 -33.74957098 25.26060281 -35.90234375 25.2734375 C-42.98941778 25.28009708 -49.77140489 24.94245094 -56.734375 23.4765625 C-59.54097865 22.88620794 -62.33013281 22.59765199 -65.1875 22.375 C-66.10917969 22.30023438 -67.03085937 22.22546875 -67.98046875 22.1484375 C-68.98013672 22.07496094 -68.98013672 22.07496094 -70 22 C-70.11899658 22.72227783 -70.23799316 23.44455566 -70.3605957 24.1887207 C-71.01217465 27.05352848 -71.95603545 29.33832639 -73.23046875 31.98046875 C-73.69686768 32.96265381 -74.1632666 33.94483887 -74.64379883 34.95678711 C-75.15322021 36.02292236 -75.6626416 37.08905762 -76.1875 38.1875 C-86.55704384 60.27280916 -96.01698388 82.93858566 -104 106 C-104.35263916 107.01247803 -104.35263916 107.01247803 -104.71240234 108.04541016 C-112.83492127 129.1133823 -112.83492127 129.1133823 -112 151 C-108.14568513 152.92715743 -103.87287641 152.52790233 -99.82421875 151.38671875 C-83.85245439 144.94694875 -71.06242048 129.34451756 -61.78173828 115.38500977 C-61.31364746 114.68432373 -60.84555664 113.9836377 -60.36328125 113.26171875 C-59.95376221 112.63225342 -59.54424316 112.00278809 -59.12231445 111.35424805 C-58.5667688 110.68389526 -58.5667688 110.68389526 -58 110 C-57.34 110 -56.68 110 -56 110 C-54 113 -54 113 -54.15625 116.296875 C-58.23005227 134.1763405 -78.08705482 153.14392824 -93 163 C-93.60714844 163.43570313 -94.21429688 163.87140625 -94.83984375 164.3203125 C-104.52943412 170.93856032 -115.3502975 173.46360476 -127 172 C-132.15738294 169.59914932 -135.45026956 165.97031668 -138.078125 160.93359375 C-142.68560572 146.27165297 -137.92429448 129.90662013 -133 116 C-132.6896582 115.12311523 -132.37931641 114.24623047 -132.05957031 113.34277344 C-127.8028692 101.50992538 -122.95173431 89.91784 -118.00439453 78.36035156 C-116.9790916 75.95086476 -115.96972462 73.53525732 -114.96484375 71.1171875 C-110.87730513 61.29057951 -106.59374155 51.60231718 -102 42 C-100.66534504 39.20776134 -99.33089465 36.41542734 -97.99755859 33.62255859 C-97.09634703 31.7364584 -96.19309125 29.85133334 -95.28759766 27.96728516 C-94.87558105 27.1066748 -94.46356445 26.24606445 -94.0390625 25.359375 C-93.66990723 24.59077148 -93.30075195 23.82216797 -92.92041016 23.03027344 C-91.89987237 20.87243905 -91.89987237 20.87243905 -91 18 C-96.17371573 17.92495168 -101.34710361 17.87098089 -106.52124023 17.83520508 C-108.27552827 17.82026608 -110.02977994 17.79990738 -111.78393555 17.77368164 C-129.68925589 17.51299899 -147.32689614 19.11270671 -161 32 C-167.39714753 39.09552608 -170.34202838 45.75472967 -170.30078125 55.3515625 C-169.97785358 58.19500357 -169.09027218 60.3699965 -168 63 C-168.375 65.3125 -168.375 65.3125 -169 67 C-172.34731984 67.3043018 -174.33225607 67.43880316 -177.1875 65.5625 C-182.87284167 57.52460315 -182.81808372 48.46485988 -181.375 39.0625 C-178.86031835 27.99790075 -172.08907003 18.98715424 -162.87890625 12.5078125 C-146.90909167 3.07243581 -130.61217227 1.63763769 -112.5625 1.75 C-111.28499878 1.7536557 -111.28499878 1.7536557 -109.98168945 1.75738525 C-91.61291574 1.81875182 -73.1886991 2.38101522 -55 5.125 C-38.56121167 7.525524 -19.7091913 7.68166046 -4.734375 -0.328125 C-3 -1 -3 -1 0 0 Z " fill="#F7FBFA" transform="translate(343,134)"/>
<path d="M0 0 C2.61391204 1.03546274 4.261733 1.1369981 7.05078125 1.0234375 C12.59431034 0.90905932 18.08056224 1.15219431 23.61328125 1.4609375 C24.4758252 1.50871338 25.33836914 1.55648926 26.22705078 1.60571289 C28.29342577 1.72180371 30.35962387 1.84103614 32.42578125 1.9609375 C32.42578125 2.2909375 32.42578125 2.6209375 32.42578125 2.9609375 C28.06992035 3.0109739 23.71421885 3.04695284 19.3581543 3.07080078 C17.88123657 3.08075933 16.40433803 3.09433111 14.92749023 3.11181641 C6.19521513 3.2124937 -2.00004183 2.78997145 -10.57421875 0.9609375 C-12.63269802 0.71604547 -14.69498851 0.49698141 -16.76171875 0.3359375 C-17.68339844 0.26117188 -18.60507812 0.18640625 -19.5546875 0.109375 C-20.55435547 0.03589844 -20.55435547 0.03589844 -21.57421875 -0.0390625 C-21.69796875 0.7446875 -21.82171875 1.5284375 -21.94921875 2.3359375 C-22.57421875 4.9609375 -22.57421875 4.9609375 -24.57421875 6.9609375 C-23.69921875 0.0859375 -23.69921875 0.0859375 -22.57421875 -1.0390625 C-15.30744196 -2.41015246 -6.95751338 -2.80834379 0 0 Z " fill="#CEE6DD" transform="translate(294.57421875,156.0390625)"/>
<path d="M0 0 C1.82421382 0.01005345 3.64843302 0.0191751 5.47265625 0.02734375 C9.89857279 0.04916172 14.32422547 0.08356016 18.75 0.125 C18.75 0.455 18.75 0.785 18.75 1.125 C17.68676514 1.14481934 16.62353027 1.16463867 15.52807617 1.18505859 C11.53388187 1.26188483 7.54001591 1.35047438 3.54614258 1.44238281 C1.82680811 1.48035782 0.10740266 1.51526177 -1.61206055 1.546875 C-14.44125781 1.78562714 -26.09475788 2.69340131 -38.25 7.125 C-39.24 7.455 -40.23 7.785 -41.25 8.125 C-41.91 7.465 -42.57 6.805 -43.25 6.125 C-41.67253984 5.48532127 -40.08748929 4.86436732 -38.5 4.25 C-37.61828125 3.90195313 -36.7365625 3.55390625 -35.828125 3.1953125 C-23.98934656 -0.34598149 -12.22764118 -0.11798015 0 0 Z " fill="#B1CFC4" transform="translate(232.25,135.875)"/>
<path d="M0 0 C0 0.66 0 1.32 0 2 C5.08082328 2.83019988 10.03449826 3.19280265 15.1875 3.1875 C15.92564941 3.18741943 16.66379883 3.18733887 17.42431641 3.18725586 C24.77864353 3.1114956 31.99643079 2.33452307 39 0 C41.1875 0.9375 41.1875 0.9375 43 2 C25.34870903 6.24844826 7.61444881 6.60938847 -10 2 C-10 1.67 -10 1.34 -10 1 C-3.375 0 -3.375 0 0 0 Z " fill="#B9D5CA" transform="translate(95,263)"/>
<path d="M0 0 C0 0.33 0 0.66 0 1 C-9.9 1.33 -19.8 1.66 -30 2 C-22.7606162 -5.2393838 -9.13526835 -1.88079054 0 0 Z " fill="#D6EBE5" transform="translate(239,150)"/>
<path d="M0 0 C0.66 0 1.32 0 2 0 C4 3 4 3 3.8125 6.375 C3.03017106 9.86539065 2.02785348 12.09047109 0 15 C-1.10844919 11.67465243 -0.84454356 9.37817425 0 6 C-0.99 6 -1.98 6 -3 6 C-1.125 1.125 -1.125 1.125 0 0 Z " fill="#DAF1EA" transform="translate(285,244)"/>
<path d="M0 0 C1.95901454 0.11382653 3.9172338 0.24141125 5.875 0.375 C6.96554688 0.44460937 8.05609375 0.51421875 9.1796875 0.5859375 C12 1 12 1 14 3 C13.66656618 6.33433821 12.3977555 8.68492572 10 11 C6.8125 11.25 6.8125 11.25 4 11 C4 10.34 4 9.68 4 9 C5.98 8.67 7.96 8.34 10 8 C10 6.02 10 4.04 10 2 C8.081875 2.061875 8.081875 2.061875 6.125 2.125 C3.9453125 2.1953125 3.9453125 2.1953125 2 2 C1.34 1.34 0.68 0.68 0 0 Z " fill="#CCE5DD" transform="translate(129,155)"/>
<path d="M0 0 C0 0.99 0 1.98 0 3 C-1.32 3.33 -2.64 3.66 -4 4 C-3.67 4.99 -3.34 5.98 -3 7 C-3.63808594 7.18175781 -4.27617187 7.36351563 -4.93359375 7.55078125 C-5.75988281 7.80214844 -6.58617187 8.05351563 -7.4375 8.3125 C-8.26121094 8.55613281 -9.08492187 8.79976562 -9.93359375 9.05078125 C-10.61550781 9.36402344 -11.29742187 9.67726563 -12 10 C-12.33 10.99 -12.66 11.98 -13 13 C-12.34 13.33 -11.68 13.66 -11 14 C-11.99 14 -12.98 14 -14 14 C-14 11.69 -14 9.38 -14 7 C-13.40832031 6.74605469 -12.81664062 6.49210937 -12.20703125 6.23046875 C-7.96359706 4.38218665 -3.90106471 2.51681595 0 0 Z " fill="#CDE7DE" transform="translate(167,112)"/>
<path d="M0 0 C1.65 0.33 3.3 0.66 5 1 C4.23640129 2.9195604 3.46381522 4.83554712 2.6875 6.75 C2.04361328 8.35101563 2.04361328 8.35101563 1.38671875 9.984375 C0.15391388 12.6652915 -1.12807487 14.7383192 -3 17 C-4.22787058 13.31638827 -3.6048575 12.51592673 -2.0625 9.0625 C-0.50942421 5.57202798 0 3.93689355 0 0 Z " fill="#1B533D" transform="translate(247,153)"/>
<path d="M0 0 C2 0.3125 2 0.3125 4 1 C5.50662097 4.01324195 5.17770373 6.68286377 5 10 C4.34 10.66 3.68 11.32 3 12 C2.67 9.69 2.34 7.38 2 5 C0.35 5.33 -1.3 5.66 -3 6 C-1.125 1.125 -1.125 1.125 0 0 Z " fill="#DAEFE9" transform="translate(205,198)"/>
<path d="M0 0 C0.99 0 1.98 0 3 0 C3 0.66 3 1.32 3 2 C4.32 2.33 5.64 2.66 7 3 C7 3.66 7 4.32 7 5 C13.27 5 19.54 5 26 5 C20.12019814 7.93990093 14.47347319 7.62331586 8 7 C4.13394651 5.59353251 2.28585089 3.42877633 0 0 Z " fill="#CDE8DF" transform="translate(208,299)"/>
<path d="M0 0 C0.99 1.485 0.99 1.485 2 3 C3.54251758 5.02941305 5.09913344 7.04729207 6.66015625 9.0625 C8 11 8 11 9 14 C9.99 14.33 10.98 14.66 12 15 C11.34 15.66 10.68 16.32 10 17 C6.125 13.25 6.125 13.25 5 11 C4.01 10.67 3.02 10.34 2 10 C2 9.34 2 8.68 2 8 C1.34 8 0.68 8 0 8 C0 5.36 0 2.72 0 0 Z " fill="#215642" transform="translate(54,239)"/>
<path d="M0 0 C0.33 0.99 0.66 1.98 1 3 C1.66 3 2.32 3 3 3 C3 4.32 3 5.64 3 7 C2.34 7 1.68 7 1 7 C0.67 10.63 0.34 14.26 0 18 C-0.66 17.67 -1.32 17.34 -2 17 C-2.11116338 11.55299453 -2.00581962 6.36437132 -1 1 C-0.67 0.67 -0.34 0.34 0 0 Z " fill="#1F5642" transform="translate(231,265)"/>
<path d="M0 0 C0.66 0.99 1.32 1.98 2 3 C-0.64 6.63 -3.28 10.26 -6 14 C-6.66 13.67 -7.32 13.34 -8 13 C-6.06382979 6.29787234 -6.06382979 6.29787234 -3 4 C-2.34 4 -1.68 4 -1 4 C-0.67 2.68 -0.34 1.36 0 0 Z " fill="#1F5441" transform="translate(200,201)"/>
<path d="M0 0 C0.33 0 0.66 0 1 0 C1.125 2.875 1.125 2.875 1 6 C0.34 6.66 -0.32 7.32 -1 8 C-2.0573219 10.53414804 -2.97460886 13.10336395 -3.90234375 15.6875 C-5 18 -5 18 -8 20 C-5.83836487 13.06001352 -3.1063786 6.56882431 0 0 Z " fill="#CFE6DE" transform="translate(241,176)"/>
<path d="M0 0 C9.57 0 19.14 0 29 0 C26 3 26 3 23.59570312 3.28051758 C22.20254883 3.21320435 22.20254883 3.21320435 20.78125 3.14453125 C19.76675781 3.09876953 18.75226563 3.05300781 17.70703125 3.00585938 C16.11955078 2.91014648 16.11955078 2.91014648 14.5 2.8125 C13.44167969 2.76802734 12.38335937 2.72355469 11.29296875 2.67773438 C3.40794159 2.27196106 3.40794159 2.27196106 0 0 Z " fill="#BFDACF" transform="translate(105,252)"/>
<path d="M0 0 C0 3.26115629 -0.31763469 4.27617044 -2 7 C-3.66666667 8.66666667 -5.33333333 10.33333333 -7 12 C-7.8353125 13.3921875 -7.8353125 13.3921875 -8.6875 14.8125 C-9.120625 15.534375 -9.55375 16.25625 -10 17 C-10.66 17 -11.32 17 -12 17 C-10.67288846 13.26295953 -9.03431904 10.46876061 -6.5625 7.375 C-5.96566406 6.61960938 -5.36882812 5.86421875 -4.75390625 5.0859375 C-3.24244136 3.28833783 -1.6926397 1.62534821 0 0 Z " fill="#CDE5DC" transform="translate(70,178)"/>
<path d="M0 0 C0 0.33 0 0.66 0 1 C-0.79664063 1.19335938 -1.59328125 1.38671875 -2.4140625 1.5859375 C-10.2865704 3.51794536 -10.2865704 3.51794536 -18 6 C-18.66 5.34 -19.32 4.68 -20 4 C-13.058915 1.09382609 -7.54290017 -0.4946164 0 0 Z " fill="#CDE4DB" transform="translate(209,138)"/>
<path d="M0 0 C0.66 0.33 1.32 0.66 2 1 C1.43850643 4.25666272 0.62770014 5.95623323 -2 8 C-4.1875 8.6875 -4.1875 8.6875 -6 9 C-6 6 -6 6 -4.6875 4.39453125 C-4.130625 3.87246094 -3.57375 3.35039062 -3 2.8125 C-2.443125 2.28269531 -1.88625 1.75289063 -1.3125 1.20703125 C-0.6628125 0.60955078 -0.6628125 0.60955078 0 0 Z " fill="#14553F" transform="translate(272,276)"/>
<path d="M0 0 C1 3 1 3 0 6 C-2.28515625 7.82421875 -2.28515625 7.82421875 -5.0625 9.6875 C-5.98160156 10.31011719 -6.90070313 10.93273437 -7.84765625 11.57421875 C-8.55792969 12.04472656 -9.26820313 12.51523438 -10 13 C-10.66 12.67 -11.32 12.34 -12 12 C-11.46890625 11.55269531 -10.9378125 11.10539063 -10.390625 10.64453125 C-6.52111681 7.33285362 -3.01412695 4.14442456 0 0 Z " fill="#DAEFE7" transform="translate(192,216)"/>
<path d="M0 0 C0 2.97 0 5.94 0 9 C-0.33 9 -0.66 9 -1 9 C-1 6.69 -1 4.38 -1 2 C-2.01320313 2.34224609 -2.01320313 2.34224609 -3.046875 2.69140625 C-4.38492187 3.12259766 -4.38492187 3.12259766 -5.75 3.5625 C-6.63171875 3.85253906 -7.5134375 4.14257812 -8.421875 4.44140625 C-11.07834316 5.01697435 -12.47031106 4.89248371 -15 4 C-13.06767179 3.13419713 -11.12892806 2.28270059 -9.1875 1.4375 C-8.10855469 0.96183594 -7.02960938 0.48617187 -5.91796875 -0.00390625 C-3 -1 -3 -1 0 0 Z " fill="#C2E1D5" transform="translate(343,134)"/>
<path d="M0 0 C0.33 0 0.66 0 1 0 C0.67 5.28 0.34 10.56 0 16 C-0.66 16 -1.32 16 -2 16 C-2.05449838 14.27119018 -2.09301688 12.54187288 -2.125 10.8125 C-2.14820313 9.84957031 -2.17140625 8.88664063 -2.1953125 7.89453125 C-1.9913544 4.87187222 -1.26874632 2.73230015 0 0 Z " fill="#225440" transform="translate(174,176)"/>
<path d="M0 0 C0.66 0.33 1.32 0.66 2 1 C0.5484451 2.67257355 -0.91144409 4.33791758 -2.375 6 C-3.18710938 6.928125 -3.99921875 7.85625 -4.8359375 8.8125 C-5.55007812 9.534375 -6.26421875 10.25625 -7 11 C-7.66 11 -8.32 11 -9 11 C-9 11.66 -9 12.32 -9 13 C-9.66 12.67 -10.32 12.34 -11 12 C-3.70159453 3.55353075 -3.70159453 3.55353075 0 0 Z " fill="#DDF2EB" transform="translate(178,148)"/>
<path d="M0 0 C0.66 0 1.32 0 2 0 C0.36959185 6.01077136 -1.27147357 12.01663928 -3 18 C-3.33 18 -3.66 18 -4 18 C-4.3690205 7.44191344 -4.3690205 7.44191344 -2 3 C-1.34 3 -0.68 3 0 3 C0 2.01 0 1.02 0 0 Z " fill="#CCE6DD" transform="translate(236,242)"/>
<path d="M0 0 C0.66 0 1.32 0 2 0 C2.33 0.99 2.66 1.98 3 3 C1.71034824 4.37562854 0.37310707 5.70766393 -1 7 C-1.66 7 -2.32 7 -3 7 C-3.33 7.99 -3.66 8.98 -4 10 C-4.66 9.01 -5.32 8.02 -6 7 C-5.04882866 5.8274869 -4.08882991 4.66212985 -3.125 3.5 C-2.59132813 2.8503125 -2.05765625 2.200625 -1.5078125 1.53125 C-0.76144531 0.77328125 -0.76144531 0.77328125 0 0 Z " fill="#1B513D" transform="translate(94,181)"/>
<path d="M0 0 C1.67542976 0.28604898 3.34385343 0.61781233 5 1 C1.74582055 2.79567975 -1.46571529 3.77381863 -5.0625 4.6875 C-6.62677734 5.09548828 -6.62677734 5.09548828 -8.22265625 5.51171875 C-11 6 -11 6 -14 5 C-13.34 5 -12.68 5 -12 5 C-11.67 4.01 -11.34 3.02 -11 2 C-10.28972656 1.93941406 -9.57945312 1.87882813 -8.84765625 1.81640625 C-7.46900391 1.69072266 -7.46900391 1.69072266 -6.0625 1.5625 C-5.14597656 1.48128906 -4.22945312 1.40007812 -3.28515625 1.31640625 C-1.03840268 1.23955024 -1.03840268 1.23955024 0 0 Z " fill="#0F4530" transform="translate(205,135)"/>
<path d="M0 0 C0.99 0.33 1.98 0.66 3 1 C3 1.66 3 2.32 3 3 C0.87790224 3.69640673 -1.24778527 4.38188357 -3.375 5.0625 C-5.15003906 5.63677734 -5.15003906 5.63677734 -6.9609375 6.22265625 C-10 7 -10 7 -12 6 C-11.01 5.67 -10.02 5.34 -9 5 C-8.67 4.34 -8.34 3.68 -8 3 C-7.34 3.33 -6.68 3.66 -6 4 C-5.67 3.34 -5.34 2.68 -5 2 C-4.01 1.67 -3.02 1.34 -2 1 C-1.34 1.33 -0.68 1.66 0 2 C0 1.34 0 0.68 0 0 Z " fill="#154A33" transform="translate(136,68)"/>
<path d="M0 0 C1.32 0.33 2.64 0.66 4 1 C2.61811547 4.21043882 1.07578097 6.04936365 -1.625 8.25 C-2.25664062 8.77078125 -2.88828125 9.2915625 -3.5390625 9.828125 C-4.02117187 10.21484375 -4.50328125 10.6015625 -5 11 C-4.23876184 7.16175706 -2.74948989 5.74948989 0 3 C0 2.01 0 1.02 0 0 Z " fill="#0D4931" transform="translate(265,263)"/>
<path d="M0 0 C0.66 0.33 1.32 0.66 2 1 C1.38511719 1.53109375 0.77023438 2.0621875 0.13671875 2.609375 C-0.67152344 3.31578125 -1.47976562 4.0221875 -2.3125 4.75 C-3.11300781 5.44609375 -3.91351563 6.1421875 -4.73828125 6.859375 C-6.77965601 8.79145335 -8.39892851 10.69943126 -10 13 C-10.99 12.67 -11.98 12.34 -13 12 C-4.738041 3.55353075 -4.738041 3.55353075 0 0 Z " fill="#D1E8E1" transform="translate(111,83)"/>
<path d="M0 0 C0.33 0.66 0.66 1.32 1 2 C0.67 2.99 0.34 3.98 0 5 C-0.66 5 -1.32 5 -2 5 C-2.66 6.32 -3.32 7.64 -4 9 C-4.66 9 -5.32 9 -6 9 C-6 9.66 -6 10.32 -6 11 C-7.65 11.33 -9.3 11.66 -11 12 C-11 11.34 -11 10.68 -11 10 C-9.56199685 9.06362586 -8.12177263 8.13039899 -6.66796875 7.21875 C-3.92257327 5.21274675 -2.07151827 2.68078835 0 0 Z " fill="#144935" transform="translate(341,147)"/>
<path d="M0 0 C0.8971875 0.309375 0.8971875 0.309375 1.8125 0.625 C0.37601736 1.75129875 -1.06172585 2.8759899 -2.5 4 C-3.30050781 4.62648438 -4.10101563 5.25296875 -4.92578125 5.8984375 C-6.63413212 7.20256718 -8.39922726 8.43281817 -10.1875 9.625 C-10.1875 8.305 -10.1875 6.985 -10.1875 5.625 C-9.548125 5.521875 -8.90875 5.41875 -8.25 5.3125 C-7.569375 5.085625 -6.88875 4.85875 -6.1875 4.625 C-5.8575 3.635 -5.5275 2.645 -5.1875 1.625 C-2.1875 -0.375 -2.1875 -0.375 0 0 Z " fill="#DCF1EA" transform="translate(134.1875,86.375)"/>
<path d="M0 0 C1.32 0.66 2.64 1.32 4 2 C2.02 4.31 0.04 6.62 -2 9 C-2.66 8.67 -3.32 8.34 -4 8 C-4 7.34 -4 6.68 -4 6 C-3.34 6 -2.68 6 -2 6 C-1.34 4.02 -0.68 2.04 0 0 Z " fill="#215D48" transform="translate(172,148)"/>
<path d="M0 0 C1.32 0 2.64 0 4 0 C2.22054913 4.04420651 -0.39529673 7.46078487 -3 11 C-3.5859375 9.12890625 -3.5859375 9.12890625 -4 7 C-2.625 4.9375 -2.625 4.9375 -1 3 C-0.67 2.01 -0.34 1.02 0 0 Z " fill="#D4EAE2" transform="translate(120,96)"/>
<path d="M0 0 C3.35898172 3.35898172 3.94588921 6.98921038 4.1953125 11.6484375 C4.17210937 12.87820312 4.14890625 14.10796875 4.125 15.375 C4.10695312 16.62023437 4.08890625 17.86546875 4.0703125 19.1484375 C4.04710937 20.08945313 4.02390625 21.03046875 4 22 C3.67 22 3.34 22 3 22 C2.92652344 20.64455078 2.92652344 20.64455078 2.8515625 19.26171875 C2.77679688 18.08222656 2.70203125 16.90273437 2.625 15.6875 C2.55539063 14.51574219 2.48578125 13.34398438 2.4140625 12.13671875 C2.21386253 8.84300113 2.21386253 8.84300113 0 6 C-0.125 2.8125 -0.125 2.8125 0 0 Z " fill="#C3DED5" transform="translate(191,84)"/>
<path d="M0 0 C0.66 0.33 1.32 0.66 2 1 C-0.64 3.97 -3.28 6.94 -6 10 C-6.99 9.67 -7.98 9.34 -9 9 C-8.06725891 7.87105124 -7.12859878 6.74699124 -6.1875 5.625 C-5.66542969 4.99851562 -5.14335938 4.37203125 -4.60546875 3.7265625 C-3 2 -3 2 0 0 Z " fill="#EAF8F3" transform="translate(117,79)"/>
<path d="M0 0 C-7.71428571 6 -7.71428571 6 -11 6 C-10.6875 4.125 -10.6875 4.125 -10 2 C-6.3558226 -0.4294516 -4.28758728 -0.16179575 0 0 Z " fill="#164B38" transform="translate(187,143)"/>
<path d="M0 0 C-0.33 0.99 -0.66 1.98 -1 3 C-2.134375 3.12375 -3.26875 3.2475 -4.4375 3.375 C-6.2009375 3.684375 -6.2009375 3.684375 -8 4 C-8.33 4.66 -8.66 5.32 -9 6 C-9.99 5.01 -10.98 4.02 -12 3 C-10.56445975 2.49440092 -9.1264798 1.9957251 -7.6875 1.5 C-6.88699219 1.2215625 -6.08648437 0.943125 -5.26171875 0.65625 C-3 0 -3 0 0 0 Z " fill="#104933" transform="translate(151,261)"/>
<path d="M0 0 C0.66 0 1.32 0 2 0 C0.18690997 3.77727089 -1.9073259 7.37269822 -4 11 C-6 8 -6 8 -6 5 C-2.66666667 2 -2.66666667 2 0 2 C0 1.34 0 0.68 0 0 Z " fill="#DAF0E7" transform="translate(88,185)"/>
<path d="M0 0 C3.96 0 7.92 0 12 0 C12 0.66 12 1.32 12 2 C8.17679443 3.42258812 5.08718695 4.24042276 1 4 C0.67 2.68 0.34 1.36 0 0 Z " fill="#CCE1DA" transform="translate(231,286)"/>
<path d="M0 0 C-3.72066472 2.48044315 -6.86540474 2.44381173 -11.1875 2.625 C-11.93708984 2.66367187 -12.68667969 2.70234375 -13.45898438 2.7421875 C-15.30559199 2.83628216 -17.1527619 2.91922319 -19 3 C-19 2.67 -19 2.34 -19 2 C-18.15695313 1.86722656 -17.31390625 1.73445313 -16.4453125 1.59765625 C-15.34960938 1.42105469 -14.25390625 1.24445313 -13.125 1.0625 C-11.48917969 0.80146484 -11.48917969 0.80146484 -9.8203125 0.53515625 C-3.11363636 -0.73744019 -3.11363636 -0.73744019 0 0 Z " fill="#D4EAE0" transform="translate(138,264)"/>
<path d="M0 0 C2.4375 0.375 2.4375 0.375 5 1 C5.33 1.66 5.66 2.32 6 3 C9.04581269 3.46954261 9.04581269 3.46954261 12.5625 3.625 C13.76003906 3.69976562 14.95757812 3.77453125 16.19140625 3.8515625 C17.11824219 3.90054688 18.04507813 3.94953125 19 4 C19 4.33 19 4.66 19 5 C6.40717489 5.76681614 6.40717489 5.76681614 2.95703125 3.88671875 C1.625 2.5 1.625 2.5 0 0 Z " fill="#D0E7E0" transform="translate(155,127)"/>
<path d="M0 0 C0.66 0.33 1.32 0.66 2 1 C1.25 2.9375 1.25 2.9375 0 5 C-2.125 5.75 -2.125 5.75 -4 6 C-4 6.66 -4 7.32 -4 8 C-4.99 7.67 -5.98 7.34 -7 7 C-4.69 4.69 -2.38 2.38 0 0 Z " fill="#225B46" transform="translate(185,162)"/>
<path d="M0 0 C0.86625 0.3403125 0.86625 0.3403125 1.75 0.6875 C0.1 2.3375 -1.55 3.9875 -3.25 5.6875 C-3.25 5.0275 -3.25 4.3675 -3.25 3.6875 C-4.24 3.3575 -5.23 3.0275 -6.25 2.6875 C-2.80384615 -0.38942308 -2.80384615 -0.38942308 0 0 Z " fill="#255D48" transform="translate(186.25,220.3125)"/>
<path d="M0 0 C2.49310643 3.73965964 2.0603261 5.29070641 1.625 9.6875 C1.51414063 10.86699219 1.40328125 12.04648438 1.2890625 13.26171875 C1.19367187 14.16535156 1.09828125 15.06898438 1 16 C0.67 16 0.34 16 0 16 C-0.19389096 13.5211787 -0.38040123 11.04219069 -0.5625 8.5625 C-0.61857422 7.85544922 -0.67464844 7.14839844 -0.73242188 6.41992188 C-0.86190993 4.61572163 -0.93521608 2.80768048 -1 1 C-0.67 0.67 -0.34 0.34 0 0 Z " fill="#255B47" transform="translate(50,209)"/>
<path d="M0 0 C0.33 1.32 0.66 2.64 1 4 C0.34 4 -0.32 4 -1 4 C-0.7215625 5.175625 -0.7215625 5.175625 -0.4375 6.375 C0 9 0 9 -1 11 C-1.66 11 -2.32 11 -3 11 C-3.33 11.66 -3.66 12.32 -4 13 C-3.40895235 8.15340923 -2.02055843 4.39251833 0 0 Z " fill="#D3ECE4" transform="translate(57,195)"/>
<path d="M0 0 C-3.03525486 2.02350324 -4.19426202 2.32124018 -7.6875 2.625 C-8.49574219 2.69976562 -9.30398438 2.77453125 -10.13671875 2.8515625 C-10.75160156 2.90054688 -11.36648438 2.94953125 -12 3 C-12.33 2.34 -12.66 1.68 -13 1 C-11.58622218 0.63447197 -10.16879424 0.28304505 -8.75 -0.0625 C-7.96109375 -0.25972656 -7.1721875 -0.45695313 -6.359375 -0.66015625 C-3.89605178 -1.01497267 -2.34395868 -0.76877544 0 0 Z " fill="#D0E8E1" transform="translate(326,140)"/>
<path d="M0 0 C0.66 0.33 1.32 0.66 2 1 C0.68 4.63 -0.64 8.26 -2 12 C-4 8 -4 8 -3.25 5.4375 C-2 3 -2 3 0 0 Z " fill="#DCF2E8" transform="translate(247,212)"/>
<path d="M0 0 C0 0.99 0 1.98 0 3 C-1.32 3.33 -2.64 3.66 -4 4 C-3.67 4.99 -3.34 5.98 -3 7 C-4.65 7.33 -6.3 7.66 -8 8 C-8 7.01 -8 6.02 -8 5 C-6.25 3.61328125 -6.25 3.61328125 -4 2.3125 C-3.2575 1.87550781 -2.515 1.43851562 -1.75 0.98828125 C-1.1725 0.66214844 -0.595 0.33601563 0 0 Z " fill="#DEF0EA" transform="translate(167,112)"/>
<path d="M0 0 C2 4 2 4 2 6 C1.34 6 0.68 6 0 6 C-0.33 6.99 -0.66 7.98 -1 9 C-1.66 9 -2.32 9 -3 9 C-2.01 6.03 -1.02 3.06 0 0 Z " fill="#1F5944" transform="translate(241,233)"/>
<path d="M0 0 C0.99 0.33 1.98 0.66 3 1 C2.34 2.98 1.68 4.96 1 7 C0.34 7 -0.32 7 -1 7 C-1 6.01 -1 5.02 -1 4 C-1.66 3.67 -2.32 3.34 -3 3 C-2.01 2.67 -1.02 2.34 0 2 C0 1.34 0 0.68 0 0 Z " fill="#1C5C44" transform="translate(151,117)"/>
<path d="M0 0 C0.66 0.99 1.32 1.98 2 3 C1.3125 6.125 1.3125 6.125 0 9 C-0.99 9.33 -1.98 9.66 -3 10 C-2.69201674 8.51988629 -2.378482 7.04092675 -2.0625 5.5625 C-1.88847656 4.73878906 -1.71445313 3.91507812 -1.53515625 3.06640625 C-1 1 -1 1 0 0 Z " fill="#1C5641" transform="translate(86,110)"/>
<path d="M0 0 C2.31332486 3.46998729 2.33957563 4.92509248 2 9 C1.01 10.485 1.01 10.485 0 12 C-0.66 12 -1.32 12 -2 12 C-1.34 8.04 -0.68 4.08 0 0 Z " fill="#DDF2EC" transform="translate(175,92)"/>
<path d="M0 0 C0.66 0.99 1.32 1.98 2 3 C-0.35953094 5.35953094 -1.77895617 5.49141413 -5 6 C-5 5.01 -5 4.02 -5 3 C-2.5 1.3125 -2.5 1.3125 0 0 Z " fill="#215A45" transform="translate(139,84)"/>
<path d="M0 0 C2.97 0.495 2.97 0.495 6 1 C4.66666667 1.66666667 3.33333333 2.33333333 2 3 C0.453125 3.804375 0.453125 3.804375 -1.125 4.625 C-4 6 -4 6 -6 6 C-6 5.34 -6 4.68 -6 4 C-4.68 4 -3.36 4 -2 4 C-1.34 2.68 -0.68 1.36 0 0 Z " fill="#D4EBE2" transform="translate(143,79)"/>
<path d="M0 0 C1.32 0.33 2.64 0.66 4 1 C2.62308038 3.75383923 0.63279958 4.51483101 -2 6 C-2 3 -2 3 0 0 Z " fill="#C8E7DE" transform="translate(205,198)"/>
<path d="M0 0 C1.94723595 2.92085393 2.55175352 4.59332678 3 8 C2 9 2 9 -1.0625 9.0625 C-2.031875 9.041875 -3.00125 9.02125 -4 9 C-2.68 8.67 -1.36 8.34 0 8 C0 5.36 0 2.72 0 0 Z " fill="#C8E8DB" transform="translate(172,192)"/>
<path d="M0 0 C0.66 0.33 1.32 0.66 2 1 C0.02579865 3.52259061 -0.96745642 3.9929808 -4.1875 4.6875 C-5.5796875 4.8421875 -5.5796875 4.8421875 -7 5 C-4.63707344 2.47411298 -3.33537489 1.11179163 0 0 Z " fill="#D9EEE7" transform="translate(187,143)"/>
<path d="M0 0 C0.66 0.33 1.32 0.66 2 1 C1.525625 2.051875 1.05125 3.10375 0.5625 4.1875 C-0.69323741 7.10175851 -1.52234381 9.84746914 -2 13 C-2.33 13 -2.66 13 -3 13 C-3.27429625 7.60550707 -3.36055646 4.48074195 0 0 Z " fill="#D9F1E8" transform="translate(112,111)"/>
<path d="M0 0 C0.66 0.33 1.32 0.66 2 1 C-1.61328125 5.6875 -1.61328125 5.6875 -3 7 C-3.99 7 -4.98 7 -6 7 C-4.60667426 3.63279613 -3.0210714 2.0140476 0 0 Z " fill="#0F4631" transform="translate(180,243)"/>
<path d="M0 0 C1.32 0.99 2.64 1.98 4 3 C-0.455 4.485 -0.455 4.485 -5 6 C-5 5.34 -5 4.68 -5 4 C-4.34 4 -3.68 4 -3 4 C-2.67 3.01 -2.34 2.02 -2 1 C-1.34 0.67 -0.68 0.34 0 0 Z " fill="#1B4A36" transform="translate(99,158)"/>
<path d="M0 0 C0.66 0.66 1.32 1.32 2 2 C-2.625 5 -2.625 5 -6 5 C-6 4.34 -6 3.68 -6 3 C-4.02 2.01 -2.04 1.02 0 0 Z " fill="#144B36" transform="translate(247,281)"/>
<path d="M0 0 C0.33 0 0.66 0 1 0 C0.67 2.31 0.34 4.62 0 7 C-1.65 7.33 -3.3 7.66 -5 8 C-4.19185349 6.66402348 -3.37836819 5.331275 -2.5625 4 C-2.11003906 3.2575 -1.65757812 2.515 -1.19140625 1.75 C-0.79824219 1.1725 -0.40507812 0.595 0 0 Z " fill="#205844" transform="translate(283,261)"/>
<path d="M0 0 C1 3 1 3 0 6 C-2.5625 7.1875 -2.5625 7.1875 -5 8 C-3.62845496 5.04590299 -2.01136276 2.55991624 0 0 Z " fill="#D9EDE7" transform="translate(281,250)"/>
<path d="M0 0 C0.66 0.33 1.32 0.66 2 1 C1.25 7.75 1.25 7.75 -1 10 C-1.125 2.25 -1.125 2.25 0 0 Z " fill="#BFDFD4" transform="translate(287,246)"/>
<path d="M0 0 C0.66 0.33 1.32 0.66 2 1 C1.01 3.97 0.02 6.94 -1 10 C-1.33 10 -1.66 10 -2 10 C-2.25 3.375 -2.25 3.375 0 0 Z " fill="#D2EBE3" transform="translate(80,199)"/>
<path d="M0 0 C2.4375 0.75 2.4375 0.75 5 2 C5.8125 4.125 5.8125 4.125 6 6 C3.13275314 5.42655063 2.1385485 5.1385485 0 3 C0 2.01 0 1.02 0 0 Z " fill="#DDF4EC" transform="translate(164,194)"/>
<path d="M0 0 C0.99 0.33 1.98 0.66 3 1 C0.69 3.31 -1.62 5.62 -4 8 C-4.33 7.01 -4.66 6.02 -5 5 C-3.35 3.35 -1.7 1.7 0 0 Z " fill="#114632" transform="translate(68,177)"/>
<path d="M0 0 C0.66 0.33 1.32 0.66 2 1 C1.46930939 4.82097239 0.50298434 7.06171403 -2 10 C-2.625 8.125 -2.625 8.125 -3 6 C-2.34 5.34 -1.68 4.68 -1 4 C-0.3574765 1.93125966 -0.3574765 1.93125966 0 0 Z " fill="#D7EEE6" transform="translate(262,175)"/>
<path d="M0 0 C-6 4 -6 4 -8.1875 3.625 C-8.785625 3.41875 -9.38375 3.2125 -10 3 C-3.375 -1.125 -3.375 -1.125 0 0 Z " fill="#CFE7DF" transform="translate(93,166)"/>
<path d="M0 0 C0.33 0.99 0.66 1.98 1 3 C-1 6 -1 6 -3.625 6.6875 C-4.800625 6.8421875 -4.800625 6.8421875 -6 7 C-4.02 4.69 -2.04 2.38 0 0 Z " fill="#21533F" transform="translate(130,90)"/>
<path d="M0 0 C0.33 0.99 0.66 1.98 1 3 C-1.39509338 5.89932357 -3.31245243 6.50168276 -7 7 C-4.66666667 4.66666667 -2.33333333 2.33333333 0 0 Z " fill="#D5ECE5" transform="translate(261,273)"/>
<path d="M0 0 C0.99 0 1.98 0 3 0 C3 0.99 3 1.98 3 3 C0.5 4.6875 0.5 4.6875 -2 6 C-1.125 1.125 -1.125 1.125 0 0 Z " fill="#19533D" transform="translate(180,224)"/>
<path d="M0 0 C1.98 1.65 3.96 3.3 6 5 C5.34 5.66 4.68 6.32 4 7 C2.35 5.35 0.7 3.7 -1 2 C-0.67 1.34 -0.34 0.68 0 0 Z " fill="#245744" transform="translate(89,150)"/>
<path d="M0 0 C0.33 0.66 0.66 1.32 1 2 C0.34 1.67 -0.32 1.34 -1 1 C-0.67 0.67 -0.34 0.34 0 0 Z M-4 1 C-3.01 1.66 -2.02 2.32 -1 3 C-1.66 3.66 -2.32 4.32 -3 5 C-5.125 4.625 -5.125 4.625 -7 4 C-6.01 3.01 -5.02 2.02 -4 1 Z " fill="#1B5642" transform="translate(185,126)"/>
<path d="M0 0 C0.66 0.66 1.32 1.32 2 2 C0.6875 4.5 0.6875 4.5 -1 7 C-1.99 7 -2.98 7 -4 7 C-2.79618552 4.50638429 -1.54571278 2.31856917 0 0 Z " fill="#DBEDE8" transform="translate(172,105)"/>
<path d="M0 0 C0.33 0.99 0.66 1.98 1 3 C0.34 3 -0.32 3 -1 3 C-1.33 4.32 -1.66 5.64 -2 7 C-2.99 6.67 -3.98 6.34 -5 6 C-3.35 4.02 -1.7 2.04 0 0 Z " fill="#295E4C" transform="translate(270,278)"/>
<path d="M0 0 C0.33 0.66 0.66 1.32 1 2 C0.01 3.485 0.01 3.485 -1 5 C-4.125 5.1875 -4.125 5.1875 -7 5 C-4.702779 3.25728062 -2.40133271 1.60088848 0 0 Z " fill="#285A46" transform="translate(168,251)"/>
<path d="M0 0 C-3.8503105 2.56687367 -5.58569763 1.83288724 -10 1 C-10 0.67 -10 0.34 -10 0 C-6.33694766 -0.74926071 -3.57644848 -1.2380014 0 0 Z " fill="#D5EAE1" transform="translate(134,253)"/>
<path d="M0 0 C0.99 0.33 1.98 0.66 3 1 C1.515 3.475 1.515 3.475 0 6 C-0.66 5.34 -1.32 4.68 -2 4 C-1 1 -1 1 0 0 Z " fill="#1F5942" transform="translate(237,247)"/>
<path d="M0 0 C0.33 0.99 0.66 1.98 1 3 C-0.8125 5.6875 -0.8125 5.6875 -3 8 C-3.66 8 -4.32 8 -5 8 C-3.62845496 5.04590299 -2.01136276 2.55991624 0 0 Z " fill="#174B37" transform="translate(205,216)"/>
</svg>
